<svg id="footer-wave" style="transform:rotate(0deg); transition: 0.3s" viewBox="0 0 1440 100" version="1.1" xmlns="http://www.w3.org/2000/svg">
                <defs>
                    <linearGradient id="sw-gradient-0" x1="0" x2="0" y1="1" y2="0">
                        <stop stop-color="rgba(24, 54, 151, 1)" offset="0%"></stop>
                        <stop stop-color="rgba(24, 54, 151, 1)" offset="100%"></stop>
                    </linearGradient>
                </defs>
                <path style="transform:translate(0, 0px); opacity:1" fill="url(#sw-gradient-0)" d="M0,20L48,28.3C96,37,192,53,288,65C384,77,480,83,576,80C672,77,768,63,864,50C960,37,1056,23,1152,23.3C1248,23,1344,37,1440,50C1536,63,1632,77,1728,75C1824,73,1920,57,2016,48.3C2112,40,2208,40,2304,48.3C2400,57,2496,73,2592,70C2688,67,2784,43,2880,30C2976,17,3072,13,3168,10C3264,7,3360,3,3456,11.7C3552,20,3648,40,3744,53.3C3840,67,3936,73,4032,71.7C4128,70,4224,60,4320,48.3C4416,37,4512,23,4608,21.7C4704,20,4800,30,4896,40C4992,50,5088,60,5184,68.3C5280,77,5376,83,5472,80C5568,77,5664,63,5760,61.7C5856,60,5952,70,6048,70C6144,70,6240,60,6336,61.7C6432,63,6528,77,6624,81.7C6720,87,6816,83,6864,81.7L6912,80L6912,100L6864,100C6816,100,6720,100,6624,100C6528,100,6432,100,6336,100C6240,100,6144,100,6048,100C5952,100,5856,100,5760,100C5664,100,5568,100,5472,100C5376,100,5280,100,5184,100C5088,100,4992,100,4896,100C4800,100,4704,100,4608,100C4512,100,4416,100,4320,100C4224,100,4128,100,4032,100C3936,100,3840,100,3744,100C3648,100,3552,100,3456,100C3360,100,3264,100,3168,100C3072,100,2976,100,2880,100C2784,100,2688,100,2592,100C2496,100,2400,100,2304,100C2208,100,2112,100,2016,100C1920,100,1824,100,1728,100C1632,100,1536,100,1440,100C1344,100,1248,100,1152,100C1056,100,960,100,864,100C768,100,672,100,576,100C480,100,384,100,288,100C192,100,96,100,48,100L0,100Z"></path>
            </svg>